<?xml version="1.0" encoding="UTF-8"?>
<svg version="1.1" xmlns="http://www.w3.org/2000/svg" width="24" height="24">
<path d="M0 0 C3.66928829 3.35700843 5.47994778 6.05950387 6 11 C6.268125 11.680625 6.53625 12.36125 6.8125 13.0625 C7 15 7 15 5.5625 17.125 C2.21178375 19.57674359 -0.83684551 20.76692764 -5 21 C-8.25 19.75 -8.25 19.75 -11 18 C-12.32755363 17.32189707 -13.65986503 16.65288627 -15 16 C-14.98743408 11.59564396 -14.82616144 7.33324413 -14 3 C-9.90978301 -0.69117143 -5.26144703 -0.75163529 0 0 Z M-6 2 C-6.66 2.66 -7.32 3.32 -8 4 C-6.68 4 -5.36 4 -4 4 C-3.34 5.32 -2.68 6.64 -2 8 C-2 7.34 -2 6.68 -2 6 C-1.01 6.33 -0.02 6.66 1 7 C1 6.01 1 5.02 1 4 C-1.95377498 1.63019987 -1.95377498 1.63019987 -6 2 Z M-5 6 C-5 6.99 -5 7.98 -5 9 C-5.99 9.495 -5.99 9.495 -7 10 C-5.68 10.33 -4.36 10.66 -3 11 C-3.33 9.35 -3.66 7.7 -4 6 C-4.33 6 -4.66 6 -5 6 Z M1 7 C1 8.98 1 10.96 1 13 C1.66 12.67 2.32 12.34 3 12 C3 10.35 3 8.7 3 7 C2.34 7 1.68 7 1 7 Z M-11 8 C-10 12 -10 12 -10 12 Z M-6 12 C-2 13 -2 13 -2 13 Z M-14 13 C-13 15 -13 15 -13 15 Z M0 13 C-0.99 14.485 -0.99 14.485 -2 16 C-1.01 16 -0.02 16 1 16 C1 15.01 1 14.02 1 13 C0.67 13 0.34 13 0 13 Z M-8 15 C-8.33 15.66 -8.66 16.32 -9 17 C-6.69 17.33 -4.38 17.66 -2 18 C-2 17.34 -2 16.68 -2 16 C-4.97 15.505 -4.97 15.505 -8 15 Z " fill="#F3F3F3" transform="translate(17,1)"/>
<path d="M0 0 C2.92961828 -0.29792728 5.14444718 -0.5129419 8 0 C11.66928829 3.35700843 13.47994778 6.05950387 14 11 C14.32483418 12.33542939 14.6550855 13.66961551 15 15 C14.01 15.495 14.01 15.495 13 16 C10.875 15.0625 10.875 15.0625 9 14 C9.20625 13.0925 9.4125 12.185 9.625 11.25 C10.17433939 8.1357715 10.17433939 8.1357715 9.4375 5.6875 C7.3015122 3.18003607 5.18943606 3.32545266 2 3 C1.01 2.67 0.02 2.34 -1 2 C-0.67 1.34 -0.34 0.68 0 0 Z " fill="#F8F8F8" transform="translate(9,1)"/>
<path d="M0 0 C2.475 0.495 2.475 0.495 5 1 C5 2.98 5 4.96 5 7 C3.35 6.67 1.7 6.34 0 6 C0 4.02 0 2.04 0 0 Z M0 7 C0.66 7.33 1.32 7.66 2 8 C1.01 8 0.02 8 -1 8 C-0.67 7.67 -0.34 7.34 0 7 Z " fill="#EDEDED" transform="translate(13,7)"/>
<path d="M0 0 C0.66 0.33 1.32 0.66 2 1 C1.34 2.65 0.68 4.3 0 6 C-2.475 5.01 -2.475 5.01 -5 4 C-3 1 -3 1 0 0 Z M-5 5 C-4 9 -4 9 -4 9 Z " fill="#F0F0F0" transform="translate(12,4)"/>
<path d="M0 0 C0.33 0 0.66 0 1 0 C1 1.98 1 3.96 1 6 C0.67 6 0.34 6 0 6 C0 4.02 0 2.04 0 0 Z " fill="#FFFFFF" transform="translate(1,8)"/>
<path d="M0 0 C3 1 3 1 3 1 Z " fill="#FFFFFF" transform="translate(11,23)"/>
<path d="M0 0 C3 1 3 1 3 1 Z " fill="#FFFFFF" transform="translate(14,22)"/>
<path d="" fill="#FFFFFF" transform="translate(0,0)"/>
<path d="M0 0 C3 1 3 1 3 1 Z " fill="#D4D4D4" transform="translate(14,5)"/>
<path d="M0 0 C0.66 0 1.32 0 2 0 C1.67 0.66 1.34 1.32 1 2 C0.67 1.34 0.34 0.68 0 0 Z " fill="#AAAAAA" transform="translate(20,3)"/>
<path d="M0 0 C2 1 2 1 2 1 Z " fill="#FFFFFF" transform="translate(9,22)"/>
<path d="M0 0 C2 1 2 1 2 1 Z " fill="#FFFFFF" transform="translate(17,21)"/>
<path d="" fill="#FFFFFF" transform="translate(0,0)"/>
<path d="" fill="#FFFFFF" transform="translate(0,0)"/>
<path d="M0 0 C2 1 2 1 2 1 Z " fill="#FFFFFF" transform="translate(7,0)"/>
<path d="" fill="#FFFFFF" transform="translate(0,0)"/>
<path d="" fill="#FFFFFF" transform="translate(0,0)"/>
<path d="" fill="#FFFFFF" transform="translate(0,0)"/>
<path d="" fill="#FFFFFF" transform="translate(0,0)"/>
<path d="" fill="#FFFFFF" transform="translate(0,0)"/>
<path d="" fill="#FFFFFF" transform="translate(0,0)"/>
<path d="" fill="#FFFFFF" transform="translate(0,0)"/>
<path d="" fill="#FFFFFF" transform="translate(0,0)"/>
<path d="" fill="#FFFFFF" transform="translate(0,0)"/>
<path d="" fill="#FFFFFF" transform="translate(0,0)"/>
<path d="" fill="#FFFFFF" transform="translate(0,0)"/>
<path d="" fill="#FFFFFF" transform="translate(0,0)"/>
<path d="" fill="#FFFFFF" transform="translate(0,0)"/>
<path d="" fill="#FFFFFF" transform="translate(0,0)"/>
</svg>
