<?xml version="1.0" encoding="UTF-8"?>
<!DOCTYPE svg PUBLIC "-//W3C//DTD SVG 1.1//EN" "http://www.w3.org/Graphics/SVG/1.1/DTD/svg11.dtd">
<svg xmlns="http://www.w3.org/2000/svg" version="1.1" width="24px" height="24px" style="shape-rendering:geometricPrecision; text-rendering:geometricPrecision; image-rendering:optimizeQuality; fill-rule:evenodd; clip-rule:evenodd" xmlns:xlink="http://www.w3.org/1999/xlink">
<g><path style="opacity:0.797" fill="#f4f4f4" d="M 19.5,3.5 C 19.5,4.16667 19.8333,4.5 20.5,4.5C 20.3284,5.49162 20.6618,6.15829 21.5,6.5C 21.3359,9.1873 21.5026,11.854 22,14.5C 22.2321,13.2625 22.7321,12.2625 23.5,11.5C 23.5,12.8333 23.5,14.1667 23.5,15.5C 22.1667,16.8333 20.8333,18.1667 19.5,19.5C 19.1667,18.1667 18.8333,18.1667 18.5,19.5C 17.5084,19.3284 16.8417,19.6618 16.5,20.5C 15.209,20.2627 14.209,20.596 13.5,21.5C 11.1667,20.8333 8.83333,20.1667 6.5,19.5C 4.90925,17.3995 3.24259,15.8995 1.5,15C 2.63009,11.0882 3.13009,7.25489 3,3.5C 5.62599,1.99775 8.79266,0.99775 12.5,0.5C 13.8333,0.666667 15.1667,0.833333 16.5,1C 17.3734,2.04499 18.3734,2.87833 19.5,3.5 Z M 16.5,4.5 C 15.5,4.5 14.5,4.5 13.5,4.5C 12.0646,3.90353 10.398,3.90353 8.5,4.5C 11.1667,1.83333 13.8333,1.83333 16.5,4.5 Z M 13.5,4.5 C 14.5,5.16667 15.5,5.83333 16.5,6.5C 15.2502,6.57735 14.4169,7.24402 14,8.5C 13.7216,7.5842 13.2216,6.91753 12.5,6.5C 12.3284,5.50838 12.6618,4.84171 13.5,4.5 Z M 17.5,7.5 C 18.2389,7.36899 18.9056,7.53566 19.5,8C 19.5,9.66667 19.5,11.3333 19.5,13C 18.9056,13.4643 18.2389,13.631 17.5,13.5C 17.5,11.5 17.5,9.5 17.5,7.5 Z M 12.5,6.5 C 13.0522,8.33073 13.0522,9.9974 12.5,11.5C 11.5,11 10.5,10.5 9.5,10C 10.8141,9.01502 11.8141,7.84836 12.5,6.5 Z M 10.5,16.5 C 9.83333,16.5 9.5,16.8333 9.5,17.5C 8.50838,17.6716 7.84171,17.3382 7.5,16.5C 8.65225,15.375 9.65225,15.375 10.5,16.5 Z M 10.5,16.5 C 11.8333,16.5 13.1667,16.5 14.5,16.5C 14.2089,17.6491 13.3756,18.3158 12,18.5C 10.9302,18.472 10.0968,18.1386 9.5,17.5C 10.1667,17.5 10.5,17.1667 10.5,16.5 Z"/></g>
<g><path style="opacity:0.004" fill="#767676" d="M 19.5,3.5 C 20.6226,2.24258 21.2893,2.57591 21.5,4.5C 21.1667,4.5 20.8333,4.5 20.5,4.5C 19.8333,4.5 19.5,4.16667 19.5,3.5 Z"/></g>
<g><path style="opacity:0.01" fill="#fefffe" d="M 21.5,4.5 C 22.3382,4.84171 22.6716,5.50838 22.5,6.5C 22.1667,6.5 21.8333,6.5 21.5,6.5C 21.5,5.83333 21.5,5.16667 21.5,4.5 Z"/></g>
<g><path style="opacity:0.012" fill="#fefffe" d="M 22.5,6.5 C 22.8333,6.5 23.1667,6.5 23.5,6.5C 23.5,7.5 23.5,8.5 23.5,9.5C 22.596,8.79105 22.2627,7.79105 22.5,6.5 Z"/></g>
<g><path style="opacity:0.767" fill="#f3f3f3" d="M 13.5,4.5 C 12.6618,4.84171 12.3284,5.50838 12.5,6.5C 13.2216,6.91753 13.7216,7.5842 14,8.5C 14.4169,7.24402 15.2502,6.57735 16.5,6.5C 16.5,7.16667 16.8333,7.5 17.5,7.5C 17.5,9.5 17.5,11.5 17.5,13.5C 16.1667,14.1667 15.1667,15.1667 14.5,16.5C 13.1667,16.5 11.8333,16.5 10.5,16.5C 9.65225,15.375 8.65225,15.375 7.5,16.5C 7.5,15.8333 7.16667,15.5 6.5,15.5C 6.5,14.8333 6.5,14.1667 6.5,13.5C 7.83333,13.1667 7.83333,12.8333 6.5,12.5C 6.5,11.1667 6.5,9.83333 6.5,8.5C 7.83333,8.16667 7.83333,7.83333 6.5,7.5C 6.5,7.16667 6.5,6.83333 6.5,6.5C 7.16667,6.5 7.5,6.16667 7.5,5.5C 8.16667,5.5 8.5,5.16667 8.5,4.5C 10.398,3.90353 12.0646,3.90353 13.5,4.5 Z M 12.5,6.5 C 11.8141,7.84836 10.8141,9.01502 9.5,10C 10.5,10.5 11.5,11 12.5,11.5C 13.0522,9.9974 13.0522,8.33073 12.5,6.5 Z"/></g>
<g><path style="opacity:0.012" fill="#fefffe" d="M 6.5,19.5 C 6.5,19.8333 6.5,20.1667 6.5,20.5C 5.82986,20.0187 5.82986,19.6853 6.5,19.5 Z"/></g>
<g><path style="opacity:0.004" fill="#fefffe" d="M 18.5,19.5 C 18.8333,19.5 19.1667,19.5 19.5,19.5C 19.3147,20.1701 18.9813,20.1701 18.5,19.5 Z"/></g>
<g><path style="opacity:0.008" fill="#fefffe" d="M 6.5,20.5 C 7.83333,21.1667 7.83333,21.1667 6.5,20.5 Z"/></g>
<g><path style="opacity:0.008" fill="#fefffe" d="M 16.5,21.5 C 16.5,21.1667 16.5,20.8333 16.5,20.5C 17.1667,20.5 17.8333,20.5 18.5,20.5C 18.1583,21.3382 17.4916,21.6716 16.5,21.5 Z"/></g>
<g><path style="opacity:0.012" fill="#fefffe" d="M 10.5,22.5 C 9.76109,22.631 9.09442,22.4643 8.5,22C 9.43677,21.3083 10.1034,21.475 10.5,22.5 Z"/></g>
<g><path style="opacity:0.009" fill="#fefffe" d="M 13.5,22.5 C 13.5,22.1667 13.5,21.8333 13.5,21.5C 14.5,21.5 15.5,21.5 16.5,21.5C 15.791,22.404 14.791,22.7373 13.5,22.5 Z"/></g>
<g><path style="opacity:0.004" fill="#fefffe" d="M 10.5,23.5 C 10.5,23.1667 10.5,22.8333 10.5,22.5C 11.5,22.5 12.5,22.5 13.5,22.5C 13.5,22.8333 13.5,23.1667 13.5,23.5C 12.5,23.5 11.5,23.5 10.5,23.5 Z"/></g>
</svg>
