<?xml version="1.0" encoding="UTF-8"?>
<svg version="1.1" xmlns="http://www.w3.org/2000/svg" width="24" height="24">
<path d="M0 0 C2.475 1.485 2.475 1.485 5 3 C4.1875 4.9375 4.1875 4.9375 3 7 C2.01 7.33 1.02 7.66 0 8 C0 7.34 0 6.68 0 6 C-0.99 6.66 -1.98 7.32 -3 8 C-2.67 8.99 -2.34 9.98 -2 11 C-1.34 11.33 -0.68 11.66 0 12 C0 11.34 0 10.68 0 10 C1.9375 10.8125 1.9375 10.8125 4 12 C4.33 12.99 4.66 13.98 5 15 C3.35 15.99 1.7 16.98 0 18 C0 17.01 0 16.02 0 15 C-4.61507774 13.95785309 -4.61507774 13.95785309 -9 15 C-11.6723621 15.13415472 -14.32250488 15.04318541 -17 15 C-17 13.68 -17 12.36 -17 11 C-14.36 11 -11.72 11 -9 11 C-9 10.01 -9 9.02 -9 8 C-11.64 7.67 -14.28 7.34 -17 7 C-17 5.68 -17 4.36 -17 3 C-15.54207116 2.94600264 -14.08357288 2.90720823 -12.625 2.875 C-11.81289062 2.85179687 -11.00078125 2.82859375 -10.1640625 2.8046875 C-8 3 -8 3 -6 5 C-5.34 4.34 -4.68 3.68 -4 3 C-2.68 3 -1.36 3 0 3 C0 2.01 0 1.02 0 0 Z " fill="#FFFFFF" transform="translate(18,3)"/>
</svg>
