<?xml version="1.0" encoding="UTF-8"?>
<svg version="1.1" xmlns="http://www.w3.org/2000/svg" width="24" height="24">
<path d="M0 0 C0.66 0 1.32 0 2 0 C2 2.64 2 5.28 2 8 C-2.95 8 -7.9 8 -13 8 C-13.33 8.99 -13.66 9.98 -14 11 C-14.99 10.01 -15.98 9.02 -17 8 C-15.25 4.125 -15.25 4.125 -13 3 C-13 3.99 -13 4.98 -13 6 C-8.71 6 -4.42 6 0 6 C0 4.02 0 2.04 0 0 Z " fill="#FFFFFF" transform="translate(19,12)"/>
<path d="M0 0 C1.32 0.99 2.64 1.98 4 3 C2.25 6.875 2.25 6.875 0 8 C0 7.01 0 6.02 0 5 C-4.29 5 -8.58 5 -13 5 C-13 6.98 -13 8.96 -13 11 C-13.66 11 -14.32 11 -15 11 C-15 8.36 -15 5.72 -15 3 C-10.05 3 -5.1 3 0 3 C0 2.01 0 1.02 0 0 Z " fill="#FFFFFF" transform="translate(18,1)"/>
</svg>
