<?xml version="1.0" encoding="UTF-8"?>
<!DOCTYPE svg PUBLIC "-//W3C//DTD SVG 1.1//EN" "http://www.w3.org/Graphics/SVG/1.1/DTD/svg11.dtd">
<svg xmlns="http://www.w3.org/2000/svg" version="1.1" width="24px" height="24px" style="shape-rendering:geometricPrecision; text-rendering:geometricPrecision; image-rendering:optimizeQuality; fill-rule:evenodd; clip-rule:evenodd" xmlns:xlink="http://www.w3.org/1999/xlink">
<g><path style="opacity:0.736" fill="#fefefe" d="M 5.5,-0.5 C 6.5,-0.5 7.5,-0.5 8.5,-0.5C 8.98672,0.473444 9.48672,1.47344 10,2.5C 10.7387,1.42575 11.7387,0.759083 13,0.5C 16.0335,2.17168 19.0335,3.83834 22,5.5C 22.6667,10.1667 22.6667,14.8333 22,19.5C 18.7312,23.2737 15.7312,23.2737 13,19.5C 12.2613,20.5742 11.2613,21.2409 10,21.5C 6.81282,20.1256 3.81282,18.459 1,16.5C 0.333333,11.8333 0.333333,7.16667 1,2.5C 2.40875,1.21886 3.90875,0.218865 5.5,-0.5 Z M 6.5,4.5 C 8.76917,6.42528 11.1025,8.42528 13.5,10.5C 14.4786,7.04718 15.9786,6.71385 18,9.5C 19.1675,12.8926 18.3342,15.5592 15.5,17.5C 13.8333,15.1667 11.8333,13.1667 9.5,11.5C 8.52144,14.9528 7.02144,15.2862 5,12.5C 4.10929,9.5024 4.60929,6.83574 6.5,4.5 Z"/></g>
</svg>
