<?xml version="1.0" encoding="UTF-8"?>
<svg version="1.1" xmlns="http://www.w3.org/2000/svg" width="24" height="24">
<path d="M0 0 C0.99 0 1.98 0 3 0 C3.125 2.875 3.125 2.875 3 6 C1 8 1 8 -2.2578125 8.1953125 C-3.53398437 8.17210937 -4.81015625 8.14890625 -6.125 8.125 C-8.04699219 8.09792969 -8.04699219 8.09792969 -10.0078125 8.0703125 C-11.48894531 8.03550781 -11.48894531 8.03550781 -13 8 C-13.33 8.99 -13.66 9.98 -14 11 C-14.99 10.01 -15.98 9.02 -17 8 C-15.25 4.125 -15.25 4.125 -13 3 C-13 3.99 -13 4.98 -13 6 C-11.3745692 5.85904936 -9.74965949 5.71207913 -8.125 5.5625 C-7.22007813 5.48128906 -6.31515625 5.40007813 -5.3828125 5.31640625 C-2.98889139 5.13010715 -2.98889139 5.13010715 -1 4 C-0.34786708 1.97536745 -0.34786708 1.97536745 0 0 Z " fill="#FFFFFF" transform="translate(19,12)"/>
<path d="M0 0 C1.32 0.99 2.64 1.98 4 3 C2.25 6.875 2.25 6.875 0 8 C0 7.01 0 6.02 0 5 C-1.6254308 5.14095064 -3.25034051 5.28792087 -4.875 5.4375 C-5.77992187 5.51871094 -6.68484375 5.59992187 -7.6171875 5.68359375 C-10.01110861 5.86989285 -10.01110861 5.86989285 -12 7 C-12.65213292 9.02463255 -12.65213292 9.02463255 -13 11 C-13.99 11 -14.98 11 -16 11 C-16.125 8.125 -16.125 8.125 -16 5 C-14 3 -14 3 -10.7421875 2.8046875 C-9.46601563 2.82789063 -8.18984375 2.85109375 -6.875 2.875 C-4.95300781 2.90207031 -4.95300781 2.90207031 -2.9921875 2.9296875 C-1.51105469 2.96449219 -1.51105469 2.96449219 0 3 C0 2.01 0 1.02 0 0 Z " fill="#FFFFFF" transform="translate(18,1)"/>
</svg>
