<?xml version="1.0" encoding="UTF-8"?>
<!DOCTYPE svg PUBLIC "-//W3C//DTD SVG 1.1//EN" "http://www.w3.org/Graphics/SVG/1.1/DTD/svg11.dtd">
<svg xmlns="http://www.w3.org/2000/svg" version="1.1" width="24px" height="24px" style="shape-rendering:geometricPrecision; text-rendering:geometricPrecision; image-rendering:optimizeQuality; fill-rule:evenodd; clip-rule:evenodd" xmlns:xlink="http://www.w3.org/1999/xlink">
<g><path style="opacity:0.434" fill="#fefffe" d="M 22.5,3.5 C 22.5,4.16667 22.5,4.83333 22.5,5.5C 21.8333,5.5 21.5,5.83333 21.5,6.5C 20.8333,6.5 20.5,6.83333 20.5,7.5C 19.5,7.83333 18.8333,8.5 18.5,9.5C 17.5416,9.0472 16.7083,8.38053 16,7.5C 12.7121,7.65836 9.21207,7.65836 5.5,7.5C 5.67474,9.6208 5.34141,11.6208 4.5,13.5C 3.31151,12.9524 2.14484,12.6191 1,12.5C 0.021845,9.33065 0.521845,6.49732 2.5,4C 23.8333,3.33333 23.8333,2.66667 2.5,2C 7.97189,1.61748 13.1386,1.11748 18,0.5C 19.6434,1.31461 21.1434,2.31461 22.5,3.5 Z M 3.5,5.5 C 8.51108,5.33407 13.5111,5.50074 18.5,6C 13.5821,6.19483 8.74878,6.69483 4,7.5C 3.53566,6.90558 3.36899,6.23891 3.5,5.5 Z"/></g>
<g><path style="opacity:0.008" fill="#fefffe" d="M 23.5,2.5 C 23.5,2.83333 23.5,3.16667 23.5,3.5C 22.8299,3.01865 22.8299,2.68532 23.5,2.5 Z"/></g>
<g><path style="opacity:0.008" fill="#fefffe" d="M 22.5,5.5 C 22.8333,5.5 23.1667,5.5 23.5,5.5C 23.5,5.83333 23.5,6.16667 23.5,6.5C 23.1667,6.16667 22.8333,5.83333 22.5,5.5 Z"/></g>
<g><path style="opacity:0.016" fill="#fefffe" d="M 21.5,6.5 C 21.8333,6.5 22.1667,6.5 22.5,6.5C 22.3147,7.17014 21.9813,7.17014 21.5,6.5 Z"/></g>
<g><path style="opacity:0.02" fill="#fefffe" d="M 20.5,7.5 C 20.8333,7.5 21.1667,7.5 21.5,7.5C 21.3147,8.17014 20.9813,8.17014 20.5,7.5 Z"/></g>
<g><path style="opacity:0.435" fill="#fefffe" d="M 18.5,9.5 C 19.6885,10.0476 20.8552,10.3809 22,10.5C 22.4966,12.8098 22.6633,15.1432 22.5,17.5C 21.8333,17.5 21.5,17.8333 21.5,18.5C 20.8333,18.5 20.5,18.8333 20.5,19.5C -0.833333,19.8333 -0.833333,20.1667 20.5,20.5C 16.4345,21.1933 12.2679,21.8599 8,22.5C 6.25323,22.6126 4.41989,22.2793 2.5,21.5C 1.85917,20.5178 1.19251,19.5178 0.5,18.5C 1.85689,16.8144 3.19022,15.1477 4.5,13.5C 5.45837,13.9528 6.2917,14.6195 7,15.5C 10.2879,15.3416 13.7879,15.3416 17.5,15.5C 17.3253,13.3792 17.6586,11.3792 18.5,9.5 Z M 18.5,15.5 C 19.0431,15.56 19.3764,15.8933 19.5,16.5C 14.533,17.6623 9.53302,17.8289 4.5,17C 9.3514,16.8255 14.0181,16.3255 18.5,15.5 Z"/></g>
<g><path style="opacity:0.012" fill="#fefffe" d="M 22.5,17.5 C 22.8333,17.5 23.1667,17.5 23.5,17.5C 23.5,17.8333 23.5,18.1667 23.5,18.5C 23.1667,18.1667 22.8333,17.8333 22.5,17.5 Z"/></g>
<g><path style="opacity:0.008" fill="#fefffe" d="M 21.5,18.5 C 21.8333,18.5 22.1667,18.5 22.5,18.5C 22.3147,19.1701 21.9813,19.1701 21.5,18.5 Z"/></g>
<g><path style="opacity:0.008" fill="#fefffe" d="M 20.5,19.5 C 20.8333,19.5 21.1667,19.5 21.5,19.5C 21.3147,20.1701 20.9813,20.1701 20.5,19.5 Z"/></g>
<g><path style="opacity:0.02" fill="#fefffe" d="M 2.5,21.5 C 1.83333,22.1667 1.83333,22.1667 2.5,21.5 Z"/></g>
</svg>
