<?xml version="1.0" encoding="utf-8" ?>
<svg baseProfile="tiny" height="24" version="1.2" width="24" xmlns="http://www.w3.org/2000/svg" xmlns:ev="http://www.w3.org/2001/xml-events" xmlns:xlink="http://www.w3.org/1999/xlink"><defs /><polygon fill="white" points="21,11 20,12 18,12 18,16 17,17 9,17 8,16 7,17 4,14 5,13 3,15 2,14 3,15 0,18 1,19 1,20 0,21 2,23 3,22 4,23 6,23 7,22 8,23 9,22 20,22 23,19 22,18 22,11" /><polygon fill="white" points="15,0 14,1 3,1 0,4 1,5 1,11 5,11 5,7 6,6 14,6 15,7 16,6 19,9 18,10 20,8 21,9 20,8 23,5 22,4 22,3 23,2 21,0 20,1 19,0 17,0 16,1" /></svg>