<?xml version="1.0" encoding="UTF-8"?>
<!DOCTYPE svg PUBLIC "-//W3C//DTD SVG 1.1//EN" "http://www.w3.org/Graphics/SVG/1.1/DTD/svg11.dtd">
<svg xmlns="http://www.w3.org/2000/svg" version="1.1" width="24px" height="24px" style="shape-rendering:geometricPrecision; text-rendering:geometricPrecision; image-rendering:optimizeQuality; fill-rule:evenodd; clip-rule:evenodd" xmlns:xlink="http://www.w3.org/1999/xlink">
<g><path style="opacity:0.761" fill="#fdfefc" d="M 10.5,1.5 C 18.7367,1.82389 22.07,5.99056 20.5,14C 21.3081,14.3076 21.9747,14.8076 22.5,15.5C 20.3921,16.9438 18.0588,17.6104 15.5,17.5C 15.4809,15.9397 15.1476,14.4397 14.5,13C 18.3823,11.7654 18.3823,9.43206 14.5,6C 13.2068,5.50999 11.8734,5.34332 10.5,5.5C 10.5,4.16667 10.5,2.83333 10.5,1.5 Z"/></g>
<g><path style="opacity:0.776" fill="#fefcfe" d="M 3.5,5.5 C 4.83333,5.5 6.16667,5.5 7.5,5.5C 7.51909,7.06025 7.85242,8.56025 8.5,10C 4.61766,11.2346 4.61766,13.5679 8.5,17C 9.79323,17.49 11.1266,17.6567 12.5,17.5C 12.5,18.8333 12.5,20.1667 12.5,21.5C 4.26333,21.1761 0.929996,17.0094 2.5,9C 1.69194,8.69238 1.02527,8.19238 0.5,7.5C 1.60164,6.82434 2.60164,6.15767 3.5,5.5 Z"/></g>
</svg>
