<?xml version="1.0" encoding="UTF-8"?>
<!DOCTYPE svg PUBLIC "-//W3C//DTD SVG 1.1//EN" "http://www.w3.org/Graphics/SVG/1.1/DTD/svg11.dtd">
<svg xmlns="http://www.w3.org/2000/svg" version="1.1" width="24px" height="24px" style="shape-rendering:geometricPrecision; text-rendering:geometricPrecision; image-rendering:optimizeQuality; fill-rule:evenodd; clip-rule:evenodd" xmlns:xlink="http://www.w3.org/1999/xlink">
<g><path style="opacity:0.438" fill="#fefffe" d="M 22.5,4.5 C 22.5,5.16667 22.5,5.83333 22.5,6.5C 21.8333,6.5 21.5,6.83333 21.5,7.5C 20.1667,7.83333 20.1667,8.16667 21.5,8.5C 22.388,11.0545 22.7214,13.7212 22.5,16.5C 21.8333,16.5 21.5,16.8333 21.5,17.5C 20.8333,17.5 20.5,17.8333 20.5,18.5C -0.833333,18.8333 -0.833333,19.1667 20.5,19.5C 16.4345,20.1933 12.2679,20.8599 8,21.5C 6.25323,21.6126 4.41989,21.2793 2.5,20.5C -0.0176222,18.6434 -0.0176222,16.8101 2.5,15C -0.166667,11.6667 -0.166667,8.33333 2.5,5C 23.8333,4.33333 23.8333,3.66667 2.5,3C 7.97189,2.61748 13.1386,2.11748 18,1.5C 19.6434,2.31461 21.1434,3.31461 22.5,4.5 Z M 3.5,6.5 C 8.51108,6.33407 13.5111,6.50074 18.5,7C 13.5821,7.19483 8.74878,7.69483 4,8.5C 3.53566,7.90558 3.36899,7.23891 3.5,6.5 Z M 5.5,8.5 C 9.21207,8.65836 12.7121,8.65836 16,8.5C 17.3186,10.2495 17.8186,12.2495 17.5,14.5C 13.7879,14.3416 10.2879,14.3416 7,14.5C 5.68136,12.7505 5.18136,10.7505 5.5,8.5 Z M 18.5,14.5 C 19.0431,14.56 19.3764,14.8933 19.5,15.5C 14.533,16.6623 9.53302,16.8289 4.5,16C 9.3514,15.8255 14.0181,15.3255 18.5,14.5 Z"/></g>
<g><path style="opacity:0.008" fill="#fefffe" d="M 23.5,3.5 C 23.5,3.83333 23.5,4.16667 23.5,4.5C 22.8299,4.01865 22.8299,3.68532 23.5,3.5 Z"/></g>
<g><path style="opacity:0.008" fill="#fefffe" d="M 22.5,6.5 C 22.8333,6.5 23.1667,6.5 23.5,6.5C 23.5,6.83333 23.5,7.16667 23.5,7.5C 23.1667,7.16667 22.8333,6.83333 22.5,6.5 Z"/></g>
<g><path style="opacity:0.016" fill="#fefffe" d="M 21.5,7.5 C 21.8333,7.5 22.1667,7.5 22.5,7.5C 22.3147,8.17014 21.9813,8.17014 21.5,7.5 Z"/></g>
<g><path style="opacity:0.012" fill="#fefffe" d="M 22.5,16.5 C 22.8333,16.5 23.1667,16.5 23.5,16.5C 23.5,16.8333 23.5,17.1667 23.5,17.5C 23.1667,17.1667 22.8333,16.8333 22.5,16.5 Z"/></g>
<g><path style="opacity:0.008" fill="#fefffe" d="M 21.5,17.5 C 21.8333,17.5 22.1667,17.5 22.5,17.5C 22.3147,18.1701 21.9813,18.1701 21.5,17.5 Z"/></g>
<g><path style="opacity:0.008" fill="#fefffe" d="M 20.5,18.5 C 20.8333,18.5 21.1667,18.5 21.5,18.5C 21.3147,19.1701 20.9813,19.1701 20.5,18.5 Z"/></g>
<g><path style="opacity:0.02" fill="#fefffe" d="M 2.5,20.5 C 1.83333,21.1667 1.83333,21.1667 2.5,20.5 Z"/></g>
</svg>
