<?xml version="1.0" encoding="UTF-8"?>
<!DOCTYPE svg PUBLIC "-//W3C//DTD SVG 1.1//EN" "http://www.w3.org/Graphics/SVG/1.1/DTD/svg11.dtd">
<svg xmlns="http://www.w3.org/2000/svg" version="1.1" width="24px" height="24px" style="shape-rendering:geometricPrecision; text-rendering:geometricPrecision; image-rendering:optimizeQuality; fill-rule:evenodd; clip-rule:evenodd" xmlns:xlink="http://www.w3.org/1999/xlink">
<g><path style="opacity:0.966" fill="#e4e4e4" d="M 18.5,1.5 C 23.8333,4.16667 23.8333,6.83333 18.5,9.5C 17.596,8.79105 17.2627,7.79105 17.5,6.5C 13.5,6.5 9.5,6.5 5.5,6.5C 5.5,8.16667 5.5,9.83333 5.5,11.5C 3.65649,9.72113 2.98983,7.38779 3.5,4.5C 8.16667,4.5 12.8333,4.5 17.5,4.5C 17.2627,3.20895 17.596,2.20895 18.5,1.5 Z"/></g>
<g><path style="opacity:0.977" fill="#e3e3e3" d="M 4.5,21.5 C -0.833333,18.8333 -0.833333,16.1667 4.5,13.5C 5.40397,14.209 5.73731,15.209 5.5,16.5C 9.5,16.5 13.5,16.5 17.5,16.5C 17.2148,14.712 17.5481,13.0453 18.5,11.5C 19.4742,13.7427 19.8076,16.076 19.5,18.5C 14.8333,18.5 10.1667,18.5 5.5,18.5C 5.73731,19.791 5.40397,20.791 4.5,21.5 Z"/></g>
<g><path style="opacity:0.185" fill="#f0f0f0" d="M 18.5,1.5 C 17.596,2.20895 17.2627,3.20895 17.5,4.5C 12.8333,4.5 8.16667,4.5 3.5,4.5C 2.98983,7.38779 3.65649,9.72113 5.5,11.5C 5.5,9.83333 5.5,8.16667 5.5,6.5C 9.5,6.5 13.5,6.5 17.5,6.5C 17.2627,7.79105 17.596,8.79105 18.5,9.5C 20.273,12.4882 20.9396,15.8215 20.5,19.5C 15.8333,19.5 11.1667,19.5 6.5,19.5C 6.71901,20.675 6.38568,21.675 5.5,22.5C 4.89333,22.3764 4.55999,22.0431 4.5,21.5C 5.40397,20.791 5.73731,19.791 5.5,18.5C 10.1667,18.5 14.8333,18.5 19.5,18.5C 19.8076,16.076 19.4742,13.7427 18.5,11.5C 17.5481,13.0453 17.2148,14.712 17.5,16.5C 13.5,16.5 9.5,16.5 5.5,16.5C 5.73731,15.209 5.40397,14.209 4.5,13.5C 2.72702,10.5118 2.06035,7.17851 2.5,3.5C 7.16667,3.5 11.8333,3.5 16.5,3.5C 16.281,2.32496 16.6143,1.32496 17.5,0.5C 18.1067,0.62358 18.44,0.956913 18.5,1.5 Z M 5.5,11.5 C 6.43448,10.4324 6.76781,9.09903 6.5,7.5C 9.83333,7.5 13.1667,7.5 16.5,7.5C 16.5,10.1667 16.5,12.8333 16.5,15.5C 13.1667,15.5 9.83333,15.5 6.5,15.5C 6.56745,14.0413 6.23411,12.7079 5.5,11.5 Z"/></g>
</svg>
