<?xml version="1.0" encoding="UTF-8"?>
<svg version="1.1" xmlns="http://www.w3.org/2000/svg" width="24" height="24">
<path d="M0 0 C2.62187494 1.04874998 3.79371361 1.64931313 5.25 4.125 C5.4975 4.74375 5.745 5.3625 6 6 C5.01 6.99 4.02 7.98 3 9 C3.33 9.33 3.66 9.66 4 10 C4.14193337 13.00331018 4.04236378 15.99217134 4 19 C-0.62 19 -5.24 19 -10 19 C-10 19.99 -10 20.98 -10 22 C-12.62187494 20.95125002 -13.79371361 20.35068687 -15.25 17.875 C-15.4975 17.25625 -15.745 16.6375 -16 16 C-15.01 15.01 -14.02 14.02 -13 13 C-13.33 12.67 -13.66 12.34 -14 12 C-14.14193337 8.99668982 -14.04236378 6.00782866 -14 3 C-9.38 3 -4.76 3 0 3 C0 2.01 0 1.02 0 0 Z M-10 7 C-10.79953138 10.28696233 -11.09658936 11.71023192 -10 15 C-6.7 15 -3.4 15 0 15 C0 12.36 0 9.72 0 7 C-3.3 7 -6.6 7 -10 7 Z " fill="#E9E9E9" transform="translate(17,1)"/>
</svg>
