<?xml version="1.0" encoding="UTF-8"?>
<svg version="1.1" xmlns="http://www.w3.org/2000/svg" width="24" height="24">
<path d="M0 0 C2.0625 0.4375 2.0625 0.4375 4 1 C4.16702456 5.34263862 4.12999997 8.20960634 2 12 C-0.77034137 12.24858198 -3.53939069 12.47452879 -6.3125 12.6875 C-7.49102539 12.79674805 -7.49102539 12.79674805 -8.69335938 12.90820312 C-9.45068359 12.96298828 -10.20800781 13.01777344 -10.98828125 13.07421875 C-12.03302612 13.16062622 -12.03302612 13.16062622 -13.09887695 13.2487793 C-15.59309425 12.92238821 -16.4211918 11.8898183 -18 10 C-16.63016497 6.83884224 -16.0109362 6.0072908 -13 4 C-12.01 4.33 -11.02 4.66 -10 5 C-8.44146733 5.21803307 -6.87817349 5.40366356 -5.3125 5.5625 C-4.10013672 5.68818359 -4.10013672 5.68818359 -2.86328125 5.81640625 C-2.24839844 5.87699219 -1.63351563 5.93757812 -1 6 C-1.020625 5.195625 -1.04125 4.39125 -1.0625 3.5625 C-1 1 -1 1 0 0 Z M0 2 C1 5 1 5 1 5 Z M0 6 C-4.62 6.33 -9.24 6.66 -14 7 C-14 7.33 -14 7.66 -14 8 C-9.05 8 -4.1 8 1 8 C0.67 7.34 0.34 6.68 0 6 Z " fill="#FFFFFF" transform="translate(19,10)"/>
<path d="M0 0 C2.2265625 0.109375 2.2265625 0.109375 4.0390625 1.609375 C4.4309375 2.104375 4.8228125 2.599375 5.2265625 3.109375 C3.85672747 6.27053276 3.2374987 7.1020842 0.2265625 9.109375 C-0.7634375 8.779375 -1.7534375 8.449375 -2.7734375 8.109375 C-4.33197017 7.89134193 -5.89526401 7.70571144 -7.4609375 7.546875 C-8.67330078 7.42119141 -8.67330078 7.42119141 -9.91015625 7.29296875 C-10.52503906 7.23238281 -11.13992187 7.17179688 -11.7734375 7.109375 C-11.7734375 8.759375 -11.7734375 10.409375 -11.7734375 12.109375 C-13.7109375 12.671875 -13.7109375 12.671875 -15.7734375 13.109375 C-16.7734375 12.109375 -16.7734375 12.109375 -16.9609375 8.796875 C-16.7018249 3.70099391 -16.7018249 3.70099391 -14.7734375 1.109375 C-12.12890625 0.5 -12.12890625 0.5 -8.9609375 0.359375 C-7.40439453 0.27429688 -7.40439453 0.27429688 -5.81640625 0.1875 C-3.87723604 0.13771386 -1.93830253 0.0764401 0 0 Z M-13.7734375 5.109375 C-13.4434375 5.769375 -13.1134375 6.429375 -12.7734375 7.109375 C-8.1534375 6.779375 -3.5334375 6.449375 1.2265625 6.109375 C1.2265625 5.779375 1.2265625 5.449375 1.2265625 5.109375 C-3.7234375 5.109375 -8.6734375 5.109375 -13.7734375 5.109375 Z M-13.7734375 8.109375 C-12.7734375 11.109375 -12.7734375 11.109375 -12.7734375 11.109375 Z " fill="#FFFFFF" transform="translate(17.7734375,0.890625)"/>
<path d="" fill="#FFFFFF" transform="translate(0,0)"/>
<path d="" fill="#FFFFFF" transform="translate(0,0)"/>
<path d="" fill="#FFFFFF" transform="translate(0,0)"/>
<path d="" fill="#FFFFFF" transform="translate(0,0)"/>
<path d="" fill="#FFFFFF" transform="translate(0,0)"/>
<path d="" fill="#FFFFFF" transform="translate(0,0)"/>
<path d="" fill="#FFFFFF" transform="translate(0,0)"/>
<path d="" fill="#FFFFFF" transform="translate(0,0)"/>
<path d="" fill="#FFFFFF" transform="translate(0,0)"/>
<path d="" fill="#FFFFFF" transform="translate(0,0)"/>
<path d="" fill="#FFFFFF" transform="translate(0,0)"/>
<path d="" fill="#FFFFFF" transform="translate(0,0)"/>
<path d="" fill="#FFFFFF" transform="translate(0,0)"/>
<path d="" fill="#FFFFFF" transform="translate(0,0)"/>
<path d="" fill="#FFFFFF" transform="translate(0,0)"/>
<path d="" fill="#FFFFFF" transform="translate(0,0)"/>
<path d="" fill="#FFFFFF" transform="translate(0,0)"/>
<path d="" fill="#FFFFFF" transform="translate(0,0)"/>
<path d="" fill="#FFFFFF" transform="translate(0,0)"/>
<path d="" fill="#FFFFFF" transform="translate(0,0)"/>
</svg>
