<?xml version="1.0" encoding="UTF-8"?>
<svg version="1.1" xmlns="http://www.w3.org/2000/svg" width="24" height="24">
<path d="M0 0 C1.32 0.66 2.64 1.32 4 2 C4 2.99 4 3.98 4 5 C2.125 5.625 2.125 5.625 0 6 C-0.66 5.34 -1.32 4.68 -2 4 C-2.79953138 7.28696233 -3.09658936 8.71023192 -2 12 C-0.68 11.34 0.64 10.68 2 10 C2.99 10.99 3.98 11.98 5 13 C3.625 14.5 3.625 14.5 2 16 C1.34 16 0.68 16 0 16 C0 15.34 0 14.68 0 14 C-0.99 14 -1.98 14 -3 14 C-4.6875 12.5 -4.6875 12.5 -6 11 C-6.33 11.99 -6.66 12.98 -7 14 C-9.64 14 -12.28 14 -15 14 C-15 13.34 -15 12.68 -15 12 C-12.69 12 -10.38 12 -8 12 C-7.20046862 8.71303767 -6.90341064 7.28976808 -8 4 C-10.31 4 -12.62 4 -15 4 C-15 3.34 -15 2.68 -15 2 C-12.36 2 -9.72 2 -7 2 C-6.67 2.99 -6.34 3.98 -6 5 C-5.3503125 4.2575 -5.3503125 4.2575 -4.6875 3.5 C-3 2 -3 2 0 2 C0 1.34 0 0.68 0 0 Z " fill="#FFFFFF" transform="translate(17,4)"/>
</svg>
