<?xml version="1.0" encoding="UTF-8"?>
<svg version="1.1" xmlns="http://www.w3.org/2000/svg" width="24" height="24">
<path d="M0 0 C4.75 0.75 4.75 0.75 7 3 C6.81720004 5.83339941 6.17756333 6.82835545 4.125 8.8125 C3.42375 9.204375 2.7225 9.59625 2 10 C1.01 9.67 0.02 9.34 -1 9 C-2.485 11.475 -2.485 11.475 -4 14 C-2.68 14 -1.36 14 0 14 C3.02604513 15.00868171 4.73030256 15.73030256 7 18 C6.8125 20 6.8125 20 6 22 C3 24 3 24 0 24 C0 23.34 0 22.68 0 22 C-0.804375 21.71125 -1.60875 21.4225 -2.4375 21.125 C-5 20 -5 20 -6 18 C-6.721875 18.66 -7.44375 19.32 -8.1875 20 C-11.21597933 22.1535853 -12.39703406 22.41176754 -16 22 C-16.33 20.35 -16.66 18.7 -17 17 C-16.21625 16.938125 -15.4325 16.87625 -14.625 16.8125 C-11.79513881 16.25498969 -11.79513881 16.25498969 -10.5625 13.625 C-10.376875 12.75875 -10.19125 11.8925 -10 11 C-11.66954819 7.77595022 -11.66954819 7.77595022 -14.625 7.3125 C-15.40875 7.209375 -16.1925 7.10625 -17 7 C-16.67 5.35 -16.34 3.7 -16 2 C-9.47692308 2.61538462 -9.47692308 2.61538462 -7.0625 4.5625 C-6.711875 5.036875 -6.36125 5.51125 -6 6 C-5.071875 5.01 -5.071875 5.01 -4.125 4 C-2 2 -2 2 0 2 C0 1.34 0 0.68 0 0 Z " fill="#FEFEFE" transform="translate(17,0)"/>
</svg>
