
<svg width="24" height="24" viewBox="0 0 24 24" fill="white" xmlns="http://www.w3.org/2000/svg">
  <path d="M16.5 12C16.5 10.83 15.83 9.79 14.84 9.29V14.71C15.83 14.21 16.5 13.17 16.5 12Z" fill="white"/>
  <path d="M14.84 5.1V7.13C16.99 7.7 18.5 9.68 18.5 12C18.5 13.1 18.2 14.13 17.68 15.01L19.07 16.4C19.68 15.33 20 14.2 20 13C20 9.6 17.51 6.71 14.34 6.1V5.1H14.84Z" fill="white"/>
  <path d="M3 10V14H7L11 18V6L7 10H3Z" fill="white"/>
  <line x1="3" y1="3" x2="21" y2="21" stroke="white" stroke-width="2"/>
</svg>
